<svg width="33" height="32" viewBox="0 0 33 32" fill="none" xmlns="http://www.w3.org/2000/svg"><g clip-path="url(#clip0_12353_2920)"><rect x="3.98828" y="7.85522" width="3.85903" height="3.8707" transform="rotate(180 3.98828 7.85522)" fill="#F5F5F5"></rect><rect x="8.00977" y="7.85522" width="3.85903" height="3.8707" transform="rotate(180 8.00977 7.85522)" fill="#F5F5F5"></rect><rect x="12.0254" y="7.85522" width="3.85903" height="3.8707" transform="rotate(180 12.0254 7.85522)" fill="#F5F5F5"></rect><rect x="20.0684" y="7.85522" width="3.85903" height="3.8707" transform="rotate(180 20.0684 7.85522)" fill="#F5F5F5"></rect><rect x="16.0469" y="7.85522" width="3.85902" height="3.8707" transform="rotate(180 16.0469 7.85522)" fill="#F5F5F5"></rect><rect x="16.127" y="28.0156" width="3.85902" height="3.8707" transform="rotate(180 16.127 28.0156)" fill="#F5F5F5"></rect><rect x="20.1484" y="28.0156" width="3.85903" height="3.8707" transform="rotate(180 20.1484 28.0156)" fill="#F5F5F5"></rect><rect x="24.0898" y="7.85522" width="3.85902" height="3.8707" transform="rotate(180 24.0898 7.85522)" fill="#F5F5F5"></rect><rect x="28.1074" y="7.85522" width="3.85902" height="3.8707" transform="rotate(180 28.1074 7.85522)" fill="#F5F5F5"></rect><rect x="32.127" y="7.85522" width="3.85903" height="3.8707" transform="rotate(180 32.127 7.85522)" fill="#F5F5F5"></rect><rect x="32.127" y="11.887" width="3.85903" height="3.8707" transform="rotate(180 32.127 11.887)" fill="#F5F5F5"></rect><rect x="32.1289" y="19.9517" width="3.85902" height="3.8707" transform="rotate(180 32.1289 19.9517)" fill="#F5F5F5"></rect><rect x="32.127" y="23.9836" width="3.85902" height="3.8707" transform="rotate(180 32.127 23.9836)" fill="#F5F5F5"></rect><rect x="32.209" y="28.0156" width="3.85902" height="3.8707" transform="rotate(180 32.209 28.0156)" fill="#F5F5F5"></rect><rect x="3.98828" y="11.887" width="3.85903" height="3.8707" transform="rotate(180 3.98828 11.887)" fill="#F5F5F5"></rect><rect x="3.98828" y="19.9514" width="3.85903" height="3.8707" transform="rotate(180 3.98828 19.9514)" fill="#F5F5F5"></rect><rect x="3.98633" y="23.9836" width="3.85903" height="3.8707" transform="rotate(180 3.98633 23.9836)" fill="#F5F5F5"></rect><rect x="3.98828" y="15.9197" width="3.85903" height="3.8707" transform="rotate(180 3.98828 15.9197)" fill="#F5F5F5"></rect><rect x="32.127" y="15.9197" width="3.85903" height="3.8707" transform="rotate(180 32.127 15.9197)" fill="#F5F5F5"></rect><rect x="4.07031" y="28.0156" width="3.85903" height="3.8707" transform="rotate(180 4.07031 28.0156)" fill="#F5F5F5"></rect><rect x="8.0918" y="28.0156" width="3.85903" height="3.8707" transform="rotate(180 8.0918 28.0156)" fill="#F5F5F5"></rect><rect x="12.1074" y="28.0156" width="3.85903" height="3.8707" transform="rotate(180 12.1074 28.0156)" fill="#F5F5F5"></rect><rect x="24.1738" y="28.0156" width="3.85903" height="3.8707" transform="rotate(180 24.1738 28.0156)" fill="#F5F5F5"></rect><rect x="28.1895" y="28.0156" width="3.85903" height="3.8707" transform="rotate(180 28.1895 28.0156)" fill="#F5F5F5"></rect><path d="M16.793 10.7173H17.9468V11.8466H16.793V10.7173Z" fill="white"></path><path d="M16.793 15.5496H17.9468V16.6788H16.793V15.5496Z" fill="white"></path><path d="M15.5957 10.6506H16.725V11.7799H15.5957V10.6506Z" fill="white"></path><path d="M14.377 10.7173H15.5308V11.8466H14.377V10.7173Z" fill="white"></path><path d="M15.5957 10.7173H16.725V11.8466H15.5957V10.7173Z" fill="white"></path><path d="M15.5957 9.42993H16.725V10.5838H15.5957V9.42993Z" fill="white"></path><path d="M15.5957 11.9128H16.725V13.0667H15.5957V11.9128Z" fill="white"></path><path d="M15.5957 13.1333H16.725V14.2626H15.5957V13.1333Z" fill="white"></path><path d="M15.5957 14.3293H16.725V15.4832H15.5957V14.3293Z" fill="white"></path><path d="M15.5957 15.5496H16.725V16.6788H15.5957V15.5496Z" fill="white"></path><path d="M15.5957 16.7456H16.725V17.8994H15.5957V16.7456Z" fill="white"></path><path d="M15.5957 17.9658H16.725V19.1196H15.5957V17.9658Z" fill="white"></path><path d="M15.5957 19.1863H16.725V20.3156H15.5957V19.1863Z" fill="white"></path><path d="M15.5957 20.3818H16.725V21.5357H15.5957V20.3818Z" fill="white"></path><path d="M15.5957 21.6025H16.725V22.7318H15.5957V21.6025Z" fill="white"></path><path d="M13.1836 11.9128H14.3129V13.0667H13.1836V11.9128Z" fill="white"></path><path d="M18.0234 19.1196H19.1527V20.2489H18.0234V19.1196Z" fill="white"></path><path d="M16.793 20.3599H17.9468V21.5137H16.793V20.3599Z" fill="white"></path><path d="M14.377 20.3818H15.5308V21.5357H14.377V20.3818Z" fill="white"></path><path d="M13.1836 20.3818H14.3129V21.5357H13.1836V20.3818Z" fill="white"></path><path d="M11.9609 13.1333H13.1148V14.2626H11.9609V13.1333Z" fill="white"></path><path d="M13.1836 14.3293H14.3129V15.4832H13.1836V14.3293Z" fill="white"></path><path d="M14.377 15.5496H15.5308V16.6788H14.377V15.5496Z" fill="white"></path><path d="M19.2168 17.8992H20.3706V19.053H19.2168V17.8992Z" fill="white"></path><path d="M18.0234 10.7173H19.1527V11.8466H18.0234V10.7173Z" fill="white"></path><path d="M18.0234 16.7456H19.1527V17.8994H18.0234V16.7456Z" fill="white"></path></g><defs><clipPath id="clip0_12353_2920"><rect width="32" height="32" fill="white" transform="translate(0.167969)"></rect></clipPath></defs></svg>